# xmcd
#
# Track frame offsets:
#	150
#	11254
#	23419
#	34557
#	46502
#	57302
#	71343
#	87408
#	102488
#	113561
#
# Disc length: 1634 seconds
#
# Revision: 1
# Processed by: cddbd v1.5.1PL0 Copyright (c) Steve Scherf et al.
# Submitted via: audiograbber 1.83.01
#
DISCID=6806600a
DTITLE=Various Artist - Kooky Kountry Disc 1of 2
DYEAR=1900
DGENRE=
TTITLE0=May the Bird of Paradise Fly Up Your Nose - Little Jimmy Dickens
TTITLE1=Tennessee Bird Walk - Jack Blanchard and Misty Morgan
TTITLE2=King of the Road - Johnny Russell
TTITLE3=Queen of the House - Jody Miller
TTITLE4=Mule Skinner Blues - The Fenderman
TTITLE5=Mr. Custer - Larry Verne
TTITLE6=Welfare Cadillac - Guy Drake
TTITLE7=Almost Persaded No. 2 - Ben Colder
TTITLE8=No Help Wanted - The Carlisles
TTITLE9=Peel Me a Nanner - Roy Drusky
EXTD=
EXTT0=
EXTT1=
EXTT2=
EXTT3=
EXTT4=
EXTT5=
EXTT6=
EXTT7=
EXTT8=
EXTT9=
PLAYORDER=
